<mxfile host="app.diagrams.net" modified="2023-01-12T14:48:44.866Z" agent="5.0 (Windows NT 10.0; Win64; x64) AppleWebKit/537.36 (KHTML, like Gecko) Chrome/107.0.0.0 Safari/537.36" version="20.8.4" etag="XKCxWl9WuBi0yY2IGmoo" type="github">
  <diagram id="F2BtPvq8yOOMWsI_L1la" name="第 1 页">
    <mxGraphModel dx="1235" dy="684" grid="1" gridSize="10" guides="1" tooltips="1" connect="1" arrows="1" fold="1" page="1" pageScale="1" pageWidth="827" pageHeight="1169" math="0" shadow="0">
      <root>
        <mxCell id="0" />
        <mxCell id="1" parent="0" />
        <mxCell id="FnkXmQGwXxbU-YA97VrU-4" value="DB" style="shape=cylinder3;whiteSpace=wrap;html=1;boundedLbl=1;backgroundOutline=1;size=15;align=left;verticalAlign=top;" vertex="1" parent="1">
          <mxGeometry x="70" y="60" width="610" height="580" as="geometry" />
        </mxCell>
        <mxCell id="FnkXmQGwXxbU-YA97VrU-5" value="MS" style="rounded=0;whiteSpace=wrap;html=1;align=left;verticalAlign=top;" vertex="1" parent="1">
          <mxGeometry x="720" y="190" width="310" height="240" as="geometry" />
        </mxCell>
        <mxCell id="FnkXmQGwXxbU-YA97VrU-12" value="trigger DML" style="edgeStyle=orthogonalEdgeStyle;rounded=0;orthogonalLoop=1;jettySize=auto;html=1;entryX=1;entryY=0.5;entryDx=0;entryDy=0;" edge="1" parent="1" source="FnkXmQGwXxbU-YA97VrU-6" target="FnkXmQGwXxbU-YA97VrU-7">
          <mxGeometry relative="1" as="geometry" />
        </mxCell>
        <mxCell id="FnkXmQGwXxbU-YA97VrU-6" value="触发器" style="rounded=1;whiteSpace=wrap;html=1;" vertex="1" parent="1">
          <mxGeometry x="390" y="160" width="120" height="60" as="geometry" />
        </mxCell>
        <mxCell id="FnkXmQGwXxbU-YA97VrU-7" value="operational table" style="rounded=1;whiteSpace=wrap;html=1;" vertex="1" parent="1">
          <mxGeometry x="140" y="160" width="120" height="60" as="geometry" />
        </mxCell>
        <mxCell id="FnkXmQGwXxbU-YA97VrU-8" value="sub_query_table" style="rounded=1;whiteSpace=wrap;html=1;align=left;verticalAlign=top;" vertex="1" parent="1">
          <mxGeometry x="180" y="420" width="300" height="150" as="geometry" />
        </mxCell>
        <mxCell id="FnkXmQGwXxbU-YA97VrU-9" value="ID" style="rounded=0;whiteSpace=wrap;html=1;" vertex="1" parent="1">
          <mxGeometry x="190" y="465" width="120" height="60" as="geometry" />
        </mxCell>
        <mxCell id="FnkXmQGwXxbU-YA97VrU-10" value="DOCUMENT" style="rounded=0;whiteSpace=wrap;html=1;" vertex="1" parent="1">
          <mxGeometry x="340" y="465" width="120" height="60" as="geometry" />
        </mxCell>
        <mxCell id="FnkXmQGwXxbU-YA97VrU-13" style="edgeStyle=orthogonalEdgeStyle;rounded=0;orthogonalLoop=1;jettySize=auto;html=1;" edge="1" parent="1" source="FnkXmQGwXxbU-YA97VrU-6" target="FnkXmQGwXxbU-YA97VrU-10">
          <mxGeometry relative="1" as="geometry" />
        </mxCell>
        <mxCell id="FnkXmQGwXxbU-YA97VrU-14" value="update document" style="edgeLabel;html=1;align=center;verticalAlign=middle;resizable=0;points=[];" vertex="1" connectable="0" parent="FnkXmQGwXxbU-YA97VrU-13">
          <mxGeometry x="-0.3478" relative="1" as="geometry">
            <mxPoint as="offset" />
          </mxGeometry>
        </mxCell>
        <mxCell id="FnkXmQGwXxbU-YA97VrU-15" style="edgeStyle=orthogonalEdgeStyle;rounded=0;orthogonalLoop=1;jettySize=auto;html=1;entryX=1;entryY=0.5;entryDx=0;entryDy=0;" edge="1" parent="1" source="FnkXmQGwXxbU-YA97VrU-5" target="FnkXmQGwXxbU-YA97VrU-10">
          <mxGeometry relative="1" as="geometry" />
        </mxCell>
      </root>
    </mxGraphModel>
  </diagram>
</mxfile>
